<?xml version="1.0" standalone="no"?><!DOCTYPE svg PUBLIC "-//W3C//DTD SVG 1.1//EN" "http://www.w3.org/Graphics/SVG/1.1/DTD/svg11.dtd"><svg t="1623120460971" class="icon" viewBox="0 0 1099 1024" version="1.1" xmlns="http://www.w3.org/2000/svg" p-id="2769" xmlns:xlink="http://www.w3.org/1999/xlink" width="137.375" height="128"><defs><style type="text/css"></style></defs><path d="M547.173 70.35C283.834 70.35 70.35 283.835 70.35 547.173 70.35 810.516 283.834 1024 547.173 1024 810.516 1024 1024 810.516 1024 547.173 1024 283.835 810.516 70.35 547.173 70.35z m1.64 912.876c-239.915 0-434.408-194.493-434.408-434.414 0-239.916 194.493-434.409 434.409-434.409 239.92 0 434.412 194.493 434.412 434.41 0 239.92-194.493 434.413-434.412 434.413zM244.379 662.45l84.87-220.979h31.497l90.443 220.979h-33.304L392.1 595.525h-92.394l-24.262 66.926h-31.066z m63.768-90.743h74.91l-23.057-61.197c-7.039-18.588-12.256-33.87-15.676-45.823-2.82 14.167-6.777 28.232-11.915 42.205l-24.262 64.815z m166.413 90.743V441.472h83.35c14.682 0 25.889 0.697 33.62 2.11 10.853 1.81 19.949 5.244 27.276 10.33 7.34 5.074 13.252 12.19 17.722 21.327 4.468 9.135 6.712 19.203 6.712 30.146 0 18.782-5.99 34.697-17.946 47.713-11.954 13.015-33.567 19.517-64.816 19.517H503.8v89.837h-29.24z m29.243-115.921h57.123c18.903 0 32.31-3.514 40.253-10.54 7.942-7.04 11.915-16.933 11.915-29.701 0-9.253-2.345-17.157-7.012-23.738-4.68-6.593-10.827-10.932-18.468-13.042-4.928-1.31-14.026-1.964-27.292-1.964h-56.518v78.986h-0.001z m176.663 115.92V441.473h83.363c14.668 0 25.873 0.697 33.606 2.11 10.853 1.81 19.95 5.244 27.29 10.33 7.325 5.074 13.239 12.19 17.709 21.327 4.47 9.135 6.697 19.203 6.697 30.146 0 18.782-5.976 34.697-17.93 47.713-11.954 13.015-33.57 19.517-64.816 19.517h-56.677v89.837h-29.242z m29.242-115.92h57.133c18.889 0 32.299-3.514 40.24-10.54 7.945-7.04 11.901-16.933 11.901-29.701 0-9.253-2.334-17.157-7-23.738-4.677-6.593-10.823-10.932-18.465-13.042-4.93-1.31-14.012-1.964-27.276-1.964h-56.532v78.985z" p-id="2770"></path></svg>