<?xml version="1.0" standalone="no"?><!DOCTYPE svg PUBLIC "-//W3C//DTD SVG 1.1//EN" "http://www.w3.org/Graphics/SVG/1.1/DTD/svg11.dtd"><svg t="1623120861596" class="icon" viewBox="0 0 1024 1024" version="1.1" xmlns="http://www.w3.org/2000/svg" p-id="8330" xmlns:xlink="http://www.w3.org/1999/xlink" width="128" height="128"><defs><style type="text/css"></style></defs><path d="M512 1024C230.4 1024 0 793.6 0 512S230.4 0 512 0s512 230.4 512 512c3.2 281.6-227.2 512-512 512z m-150.4-307.2c28.8 144 96 233.6 153.6 233.6s124.8-89.6 153.6-233.6h-307.2z m-230.4 0c51.2 102.4 134.4 172.8 240 211.2-35.2-57.6-70.4-121.6-86.4-211.2H131.2z m614.4 0c-16 89.6-57.6 153.6-89.6 211.2 108.8-35.2 192-105.6 243.2-211.2h-153.6z m179.2-76.8c12.8-38.4 28.8-86.4 28.8-131.2 0-41.6-19.2-86.4-28.8-124.8h-179.2c6.4 41.6 3.2 86.4 3.2 124.8 0 44.8 0 89.6-3.2 131.2h179.2z m-256 0c6.4-38.4 6.4-86.4 6.4-131.2s-3.2-89.6-6.4-124.8h-307.2c-6.4 38.4-6.4 83.2-6.4 124.8 0 44.8 6.4 92.8 6.4 131.2h307.2z m-384 0c-6.4-38.4-6.4-86.4-6.4-131.2 0-38.4 3.2-83.2 6.4-124.8H105.6c-9.6 38.4-32 83.2-32 124.8 0 44.8 19.2 89.6 32 131.2h179.2zM899.2 307.2c-51.2-105.6-134.4-176-243.2-211.2 35.2 57.6 73.6 121.6 89.6 211.2h153.6z m-230.4 0c-28.8-144-96-236.8-153.6-236.8s-124.8 92.8-153.6 236.8h307.2z m-384 0c16-89.6 54.4-156.8 86.4-211.2-108.8 35.2-188.8 105.6-240 211.2h153.6z" p-id="8331"></path></svg>