<?xml version="1.0" standalone="no"?><!DOCTYPE svg PUBLIC "-//W3C//DTD SVG 1.1//EN" "http://www.w3.org/Graphics/SVG/1.1/DTD/svg11.dtd"><svg t="1623120684246" class="icon" viewBox="0 0 1024 1024" version="1.1" xmlns="http://www.w3.org/2000/svg" p-id="5691" xmlns:xlink="http://www.w3.org/1999/xlink" width="128" height="128"><defs><style type="text/css"></style></defs><path d="M873.127936 94.695424C799.297536 57.776128 645.214208 4.814848 645.214208 4.814848s51.361792 46.546944 54.571008 85.065728c3.213312 35.311616 0 377.18016 0 377.18016s3.213312 407.67488 0 449.40288c-3.207168 44.939264-54.571008 101.115904-54.571008 101.115904s154.083328-62.590976 227.913728-105.930752c73.8304-43.33568 150.872064-97.90464 150.872064-97.90464V176.553984s-75.436032-46.548992-150.872064-81.85856zM178.153472 290.506752h316.188672a57.542656 57.542656 0 0 0 57.78432-57.778176V170.131456c0-32.1024-25.68192-57.778176-57.78432-57.778176H178.153472a57.536512 57.536512 0 0 0-57.778176 57.778176v62.59712a57.540608 57.540608 0 0 0 57.778176 57.778176z m321.00352 30.496768H171.737088c-30.496768 0-54.571008 24.072192-54.571008 54.571008v38.516736c0 30.496768 24.07424 54.575104 54.571008 54.575104h325.81632c30.496768 0 54.571008-24.078336 54.571008-54.575104v-38.516736c0.002048-30.498816-24.072192-54.571008-52.967424-54.571008z m0 0" p-id="5692" fill="#1296db"></path><path d="M670.89408 544.098304V170.131456c0-6.42048 0-11.235328-1.599488-16.050176-8.02816-83.460096-78.649344-147.6608-163.715072-147.6608H165.316608c-85.065728 0-155.686912 65.808384-163.708928 147.6608 0 4.8128-1.60768 11.235328-1.60768 16.050176V850.65728c0 69.019648 43.333632 130.004992 104.32512 154.083328 1.60768 0 3.213312 1.601536 3.213312 1.601536 4.814848 1.605632 9.629696 3.213312 12.838912 4.816896 1.60768 0 3.207168 1.605632 4.814848 1.605632 4.814848 1.605632 9.629696 1.605632 12.838912 3.20512 1.605632 0 3.213312 0 4.820992 1.60768 6.416384 0 12.838912 1.60768 19.259392 1.60768h341.868544c6.416384 0 12.836864 0 19.259392-1.60768 1.601536 0 3.207168 0 4.816896-1.60768 4.814848 0 9.627648-1.599488 12.838912-3.20512 1.605632 0 3.211264-1.605632 4.814848-1.605632 4.814848-1.601536 9.629696-3.209216 12.843008-4.816896 1.601536 0 3.209216-1.601536 3.209216-1.601536 60.98944-24.078336 104.323072-83.464192 104.323072-154.083328l4.808704-306.558976z m-280.877056 216.6784c-9.629696 14.442496-24.07424 24.07424-41.728 27.285504-4.814848 1.60768-8.02816 1.60768-12.843008 1.60768s-9.629696 0-12.838912-1.60768c-25.679872-4.814848-44.939264-25.679872-51.361792-51.361792-1.60768-4.814848-1.60768-8.022016-1.60768-12.836864 0-4.816896 0-9.629696 1.60768-12.843008 4.814848-25.679872 25.68192-44.939264 51.361792-51.361792 4.814848-1.601536 8.024064-1.601536 12.838912-1.601536s9.629696 0 12.843008 1.601536c17.65376 3.213312 32.098304 12.843008 41.728 27.287552 6.422528 11.235328 11.237376 22.472704 11.237376 36.917248 0 12.836864-4.814848 25.679872-11.237376 36.913152z m192.602112-324.212736c0 33.705984-28.88704 62.593024-62.595072 62.593024H150.872064c-33.703936 0-62.59712-28.88704-62.59712-62.593024V146.057216c0-33.703936 28.893184-62.59712 62.59712-62.59712h369.152c33.708032 0 62.595072 28.893184 62.595072 62.59712v290.506752z m0 0" p-id="5693" fill="#1296db"></path></svg>